<svg width="98" height="98" viewBox="0 0 98 98" fill="none" xmlns="http://www.w3.org/2000/svg">
<path d="M49.0002 12.25C34.365 12.25 22.4585 24.1912 22.4585 38.8688C22.4585 57.0842 46.2107 83.8254 47.222 84.9549C48.1718 86.0159 49.8302 86.0141 50.7784 84.9549C51.7896 83.8254 75.5418 57.0842 75.5418 38.8688C75.5415 24.1912 63.6352 12.25 49.0002 12.25ZM49.0002 52.2615C41.6369 52.2615 35.6465 46.2536 35.6465 38.8688C35.6465 31.4841 41.637 25.4763 49.0002 25.4763C56.3633 25.4763 62.3537 31.4842 62.3537 38.8689C62.3537 46.2537 56.3633 52.2615 49.0002 52.2615Z" fill="#F09000"/>
</svg>
